HIERARCHY
ROOT sphere
{
	OFFSET 0.000000 0.000000 0.000000
	CHANNELS 6 Xposition Yposition Zposition Yrotation Xrotation Zrotation
	End Site
	{
		OFFSET 0.000000 0.000000 0.000000
	}
}
MOTION
Frames: 161
Frame Time: 0.008333334
-3.575304 0.457130 3.363230 109.362700 -28.420470 -60.176120 
-3.575452 0.457100 3.363055 109.375700 -28.456450 -60.139160 
-3.575361 0.457024 3.362916 109.360200 -28.390990 -60.182370 
-3.575620 0.457447 3.362127 109.345200 -28.353360 -59.779330 
-3.575683 0.457490 3.362175 109.298900 -28.313930 -59.727570 
-3.575571 0.457822 3.362421 109.332900 -28.278810 -59.748870 
-3.575241 0.457831 3.363308 109.284700 -28.238130 -60.057620 
-3.575328 0.458155 3.363568 109.259300 -28.159700 -60.017910 
-3.575292 0.458406 3.363500 109.290400 -28.189970 -59.863220 
-3.575812 0.458643 3.363345 109.258300 -28.190160 -59.621000 
-3.576109 0.458596 3.363713 109.230900 -28.233310 -59.603970 
-3.576642 0.458242 3.364053 109.249500 -28.309630 -59.608430 
-3.576900 0.457384 3.365342 109.201600 -28.328580 -59.985720 
-3.577278 0.457078 3.365524 109.221200 -28.396670 -60.033940 
-3.577723 0.456947 3.366117 109.246600 -28.418610 -60.027370 
-3.578270 0.456912 3.365986 109.237000 -28.469880 -59.850160 
-3.578550 0.456799 3.366574 109.210700 -28.484860 -59.780880 
-3.578592 0.457170 3.367286 109.225900 -28.441930 -59.705140 
-3.578500 0.457308 3.367920 109.178700 -28.436520 -59.671080 
-3.578610 0.457544 3.368605 109.224000 -28.419650 -59.566160 
-3.578620 0.458120 3.369275 109.157100 -28.422730 -59.511870 
-3.578475 0.458204 3.370200 109.124200 -28.422850 -59.647980 
-3.578730 0.458798 3.370384 109.149900 -28.466860 -59.478790 
-3.578841 0.458887 3.370660 109.132100 -28.540740 -59.273770 
-3.579047 0.458980 3.371003 109.142700 -28.574890 -59.284850 
-3.579577 0.459015 3.371434 109.096400 -28.598820 -59.180360 
-3.579872 0.458834 3.371527 109.090100 -28.632810 -59.163120 
-3.580142 0.458351 3.372973 109.048800 -28.683870 -59.529940 
-3.580679 0.458498 3.372517 109.070500 -28.725800 -59.158910 
-3.580876 0.458219 3.372756 109.044000 -28.761960 -59.082610 
-3.580752 0.458336 3.372913 109.070600 -28.774870 -59.034940 
-3.580493 0.458214 3.373832 109.107000 -28.764590 -59.446960 
-3.580208 0.458464 3.373956 109.081700 -28.739320 -59.406980 
-3.580439 0.458990 3.373432 109.134400 -28.743100 -59.063020 
-3.580309 0.459218 3.373714 109.123300 -28.718690 -59.049220 
-3.579854 0.458911 3.374365 109.110200 -28.708560 -59.426820 
-3.579815 0.459207 3.374200 109.123200 -28.682010 -59.441470 
-3.580139 0.459250 3.373413 109.111000 -28.698730 -59.056400 
-3.580118 0.459357 3.373250 109.100700 -28.682590 -59.050600 
-3.580148 0.459154 3.372987 109.077500 -28.656310 -59.092860 
-3.580336 0.458920 3.372722 109.053900 -28.668120 -59.084840 
-3.580284 0.458699 3.372554 109.064000 -28.658050 -59.147190 
-3.580264 0.458520 3.372218 109.091900 -28.674650 -59.176360 
-3.580190 0.458494 3.372033 109.109200 -28.671480 -59.200440 
-3.580032 0.458397 3.371583 109.133500 -28.658600 -59.225830 
-3.579748 0.458526 3.371351 109.121700 -28.635930 -59.230470 
-3.579516 0.458603 3.371069 109.146800 -28.584660 -59.254610 
-3.579089 0.458513 3.370846 109.152000 -28.559630 -59.239650 
-3.579000 0.458781 3.370596 109.157500 -28.513060 -59.300480 
-3.578837 0.458528 3.370564 109.158200 -28.501920 -59.492030 
-3.578607 0.458399 3.370584 109.168500 -28.509090 -59.731020 
-3.578726 0.458051 3.369925 109.146900 -28.443630 -59.491090 
-3.578676 0.458057 3.369551 109.166700 -28.465700 -59.536350 
-3.578441 0.457624 3.369611 109.189600 -28.469970 -59.789610 
-3.578997 0.457556 3.368846 109.278400 -28.472560 -59.595610 
-3.578912 0.457453 3.368728 109.235400 -28.482910 -59.615420 
-3.578968 0.457373 3.368579 109.239700 -28.457610 -59.629760 
-3.579143 0.457467 3.368282 109.262200 -28.470120 -59.543790 
-3.578860 0.457507 3.368240 109.224800 -28.469970 -59.565340 
-3.578837 0.457394 3.368283 109.268600 -28.437320 -59.672450 
-3.578464 0.457574 3.368555 109.245600 -28.394780 -59.606780 
-3.578365 0.457640 3.368450 109.243800 -28.376770 -59.579410 
-3.578278 0.457750 3.368569 109.219400 -28.377230 -59.576320 
-3.578299 0.457930 3.368692 109.209200 -28.377750 -59.510680 
-3.577931 0.457810 3.369020 109.137900 -28.379820 -59.735230 
-3.578498 0.458489 3.367998 109.176800 -28.419430 -59.028290 
-3.578485 0.458039 3.368277 109.199900 -28.412380 -59.288790 
-3.578599 0.457794 3.369034 109.196700 -28.425170 -59.497380 
-3.578673 0.457812 3.368980 109.198900 -28.400450 -59.562350 
-3.578597 0.457652 3.369541 109.208000 -28.431490 -59.766330 
-3.578834 0.457387 3.369898 109.237800 -28.478520 -59.823520 
-3.578791 0.457438 3.369977 109.210000 -28.485780 -59.748840 
-3.579027 0.457884 3.369954 109.188200 -28.471620 -59.545930 
-3.579093 0.457908 3.370220 109.153700 -28.524600 -59.529570 
-3.578759 0.457853 3.370668 109.102500 -28.543490 -59.717860 
-3.578828 0.457966 3.370743 109.098000 -28.510190 -59.663390 
-3.578804 0.457994 3.371027 109.132600 -28.495060 -59.667420 
-3.578890 0.458202 3.371093 109.142700 -28.502440 -59.697600 
-3.578888 0.458205 3.371100 109.118000 -28.523830 -59.646610 
-3.579198 0.458468 3.370503 109.139800 -28.529820 -59.285580 
-3.579488 0.458456 3.370654 109.130400 -28.566130 -59.314420 
-3.579390 0.457822 3.371270 109.107300 -28.543330 -59.677640 
-3.579400 0.457854 3.371318 109.159100 -28.543430 -59.725310 
-3.579536 0.457813 3.371347 109.175900 -28.565400 -59.706480 
-3.579541 0.457475 3.371447 109.142900 -28.589360 -59.691470 
-3.579303 0.457656 3.371340 109.096600 -28.561130 -59.631470 
-3.579364 0.457872 3.371405 109.152700 -28.550320 -59.701660 
-3.579078 0.458135 3.371400 109.154600 -28.536010 -59.679690 
-3.579268 0.458561 3.370705 109.125500 -28.542330 -59.268590 
-3.578588 0.458227 3.371339 109.111400 -28.518920 -59.690370 
-3.579080 0.458680 3.370631 109.125000 -28.528140 -59.279720 
-3.578723 0.458236 3.371088 109.065900 -28.505620 -59.641850 
-3.578765 0.458218 3.370882 109.117100 -28.564910 -59.666230 
-3.578803 0.457925 3.370844 109.070200 -28.502840 -59.678220 
-3.578840 0.457840 3.370782 109.100400 -28.525570 -59.641720 
-3.578979 0.457758 3.370665 109.131800 -28.523830 -59.717070 
-3.579076 0.457574 3.370513 109.166800 -28.495120 -59.734500 
-3.579089 0.457525 3.370414 109.152200 -28.519260 -59.712800 
-3.579057 0.457527 3.370404 109.171000 -28.517970 -59.737120 
-3.579158 0.457755 3.370365 109.190800 -28.501920 -59.759490 
-3.579081 0.457637 3.370384 109.149600 -28.515630 -59.746000 
-3.578897 0.457924 3.369963 109.319300 -28.587920 -59.816310 
-3.578919 0.457968 3.369883 109.296100 -28.581970 -59.803340 
-3.578668 0.458026 3.369791 109.268600 -28.536100 -59.761110 
-3.578641 0.458148 3.369943 109.224000 -28.552120 -59.742580 
-3.578778 0.457935 3.370226 109.149000 -28.496980 -59.706360 
-3.578836 0.458089 3.369882 109.267000 -28.543640 -59.758510 
-3.578903 0.457621 3.370040 109.197000 -28.463680 -59.740880 
-3.579001 0.457839 3.369984 109.232500 -28.572110 -59.786130 
-3.579093 0.457609 3.370311 109.121700 -28.530550 -59.762940 
-3.579012 0.457739 3.370106 109.260900 -28.554260 -59.817630 
-3.579049 0.457565 3.370518 109.108500 -28.541320 -59.738830 
-3.579103 0.457560 3.370475 109.148700 -28.527220 -59.720120 
-3.579220 0.457604 3.370586 109.137800 -28.523070 -59.720060 
-3.579082 0.457549 3.370697 109.141200 -28.514010 -59.706730 
-3.578945 0.457830 3.370744 109.141200 -28.510310 -59.705200 
-3.578927 0.457900 3.370697 109.121600 -28.493230 -59.684940 
-3.578909 0.458043 3.370564 109.055400 -28.506260 -59.619570 
-3.578887 0.457738 3.370813 109.037500 -28.450560 -59.617000 
-3.578996 0.457732 3.370817 109.033500 -28.446590 -59.608120 
-3.579129 0.457825 3.370839 109.080100 -28.494140 -59.643860 
-3.579190 0.458028 3.370452 109.239100 -28.598110 -59.736850 
-3.579344 0.457932 3.370535 109.281900 -28.598690 -59.788510 
-3.579574 0.457683 3.370538 109.170100 -28.553470 -59.688570 
-3.579679 0.457797 3.370461 109.301600 -28.637360 -59.813510 
-3.579444 0.457477 3.370792 109.119200 -28.523350 -59.770720 
-3.579602 0.457394 3.371079 109.045800 -28.485470 -59.652130 
-3.579604 0.457422 3.371010 109.085400 -28.487790 -59.673680 
-3.579432 0.457790 3.370510 109.234700 -28.583680 -59.763000 
-3.579230 0.457860 3.370461 109.252500 -28.583650 -59.768070 
-3.579321 0.457948 3.370416 109.263500 -28.604060 -59.810300 
-3.579313 0.457866 3.370373 109.251100 -28.583130 -59.802830 
-3.579207 0.457950 3.370271 109.229500 -28.605410 -59.748350 
-3.579249 0.458057 3.370103 109.229600 -28.611970 -59.753780 
-3.579142 0.457581 3.370482 109.035000 -28.414730 -59.645480 
-3.579142 0.457902 3.370344 109.215700 -28.494450 -59.768040 
-3.579214 0.457830 3.370365 109.201300 -28.502040 -59.763280 
-3.579179 0.457974 3.370183 109.265900 -28.566040 -59.779970 
-3.579281 0.457994 3.370087 109.280100 -28.571810 -59.793520 
-3.579388 0.458033 3.370041 109.304700 -28.569150 -59.791230 
-3.579262 0.457928 3.370195 109.297100 -28.579800 -59.827820 
-3.579365 0.457681 3.370415 109.181400 -28.533840 -59.721010 
-3.579268 0.457925 3.370017 109.316300 -28.599090 -59.837250 
-3.579326 0.457894 3.370171 109.281800 -28.581910 -59.820560 
-3.579371 0.457865 3.370172 109.255900 -28.592380 -59.749240 
-3.579322 0.457764 3.370172 109.297900 -28.578950 -59.788020 
-3.579197 0.457829 3.370152 109.251600 -28.577820 -59.746190 
-3.579265 0.457752 3.370231 109.238000 -28.557830 -59.758420 
-3.579261 0.457753 3.370204 109.254300 -28.572570 -59.734100 
-3.579251 0.457663 3.370284 109.244600 -28.578700 -59.734130 
-3.579478 0.457788 3.370327 109.247000 -28.588350 -59.788360 
-3.579436 0.457397 3.370697 109.077500 -28.441250 -59.705540 
-3.579696 0.457432 3.370688 109.138000 -28.511870 -59.717070 
-3.579545 0.457416 3.370811 109.110200 -28.482970 -59.700590 
-3.579499 0.457286 3.370757 109.064100 -28.438750 -59.686280 
-3.579464 0.457316 3.370741 109.047200 -28.436800 -59.649020 
-3.579388 0.457331 3.370782 109.043700 -28.427980 -59.616210 
-3.579299 0.457412 3.370769 109.067500 -28.434420 -59.658330 
-3.579222 0.457376 3.370775 109.055900 -28.409520 -59.641880 
-3.579331 0.457541 3.370650 109.144400 -28.486660 -59.681240 
-3.579220 0.457319 3.370745 109.056600 -28.418820 -59.604550 
